<?xml version="1.0" standalone="no"?><!DOCTYPE svg PUBLIC "-//W3C//DTD SVG 1.1//EN" "http://www.w3.org/Graphics/SVG/1.1/DTD/svg11.dtd"><svg t="1714985925906" class="icon" viewBox="0 0 1024 1024" version="1.1" xmlns="http://www.w3.org/2000/svg" p-id="16103" xmlns:xlink="http://www.w3.org/1999/xlink" width="200" height="200"><path d="M0 146.286h1024v840.143a1 1 0 0 1-1 1H1a1 1 0 0 1-1-1V146.286z" fill="#7B8CA9" p-id="16104"></path><path d="M1 36.571h1022a1 1 0 0 1 1 1v108.715H0V37.57a1 1 0 0 1 1-1z" fill="#E5E5E5" p-id="16105"></path><path d="M36.571 73.143h36.571v36.571H36.571z" fill="#FA5353" p-id="16106"></path><path d="M109.714 73.143h36.571v36.571h-36.571z" fill="#FFFFFF" p-id="16107"></path><path d="M182.857 73.143h36.571v36.571h-36.571z" fill="#09D2AD" p-id="16108"></path><path d="M73.143 219.429h146.286V256H73.143zM182.857 365.714h256v36.571h-256zM694.857 438.857h109.714v36.571H694.857zM182.857 512H256v36.571h-73.143zM146.286 585.143H256v36.571H146.286zM585.143 585.143h146.286v36.571H585.143zM219.429 658.286h109.714v36.571H219.429zM256 731.429h182.857V768H256zM219.429 804.571h109.714v36.571H219.429zM109.714 877.714H256v36.571H109.714zM475.429 877.714h109.714v36.571H475.429zM731.429 731.429h146.286V768H731.429zM438.857 219.429H512V256h-73.143zM146.286 292.571h73.143v36.571h-73.143z" fill="#9AC3E7" p-id="16109"></path><path d="M256 292.571h109.714v36.571H256zM365.714 438.857h109.714v36.571H365.714zM292.571 585.143h73.143v36.571h-73.143zM475.429 731.429h219.429V768H475.429z" fill="#F0F087" p-id="16110"></path><path d="M256 219.429h36.571V256H256zM402.286 292.571h73.143v36.572h-73.143zM475.429 365.714h146.285v36.572H475.43zM146.286 438.857h182.857v36.572H146.286zM292.571 512H475.43v36.571H292.57zM512 512h109.714v36.571H512zM402.286 585.143H548.57v36.571H402.286zM658.286 804.571h182.857v36.572H658.286zM292.571 877.714h146.286v36.572H292.571z" fill="#09D2AD" p-id="16111"></path><path d="M329.143 219.429h73.143V256h-73.143zM512 438.857h146.286v36.572H512zM365.714 658.286h182.857v36.571H365.714zM365.714 804.571h256v36.572h-256z" fill="#F6B99C" p-id="16112"></path></svg>